<svg width="4915" height="940" viewBox="0 0 4915 940" fill="none" xmlns="http://www.w3.org/2000/svg">
<path d="M396.603 564.794C396.603 413.095 197.391 445.152 197.391 379.321C197.391 359.285 216.855 336.387 255.781 336.387C290.7 336.387 317.033 352.416 335.924 371.306L394.313 312.917C360.539 279.715 314.743 256.245 253.491 256.245C154.458 256.245 98.9305 318.641 98.9305 379.321C98.9305 528.729 298.142 487.513 298.142 567.083C298.142 591.699 274.672 611.162 231.738 611.162C194.529 611.162 162.472 593.416 145.871 576.243L86.9091 634.632C118.966 666.117 171.631 691.304 231.738 691.304C345.083 691.304 396.603 628.335 396.603 564.794ZM717.508 510.984C717.508 573.38 678.581 612.879 624.771 612.879C582.41 612.879 561.802 587.691 561.802 559.642C561.802 529.874 588.135 497.817 648.814 497.817H717.508V510.984ZM817.686 409.088C817.686 323.221 752.427 256.245 640.227 256.245C570.961 256.245 521.731 279.142 481.087 312.917L539.477 371.306C562.375 350.698 592.142 336.387 629.923 336.387C676.292 336.387 711.783 364.437 714.646 398.211C718.08 401.074 717.508 428.551 717.508 433.703H652.821C518.296 433.703 459.907 496.1 459.907 567.083C459.907 633.487 517.151 688.442 595.577 688.442C657.401 688.442 700.334 660.965 720.37 616.886V679.855H817.686V409.088ZM1544.83 420.537C1544.83 322.648 1489.31 259.107 1404.58 259.107C1345.05 259.107 1303.83 291.164 1279.79 342.684C1261.47 300.895 1223.12 259.107 1153.85 259.107C1097.75 259.107 1060.54 286.584 1041.08 332.38V267.693H943.764V679.855H1043.94V469.767C1043.94 387.907 1084.59 343.256 1125.23 343.256C1170.45 343.256 1194.5 373.596 1194.5 436.565V679.855H1294.1V469.767C1294.1 387.907 1335.32 343.256 1375.96 343.256C1420.61 343.256 1444.66 373.596 1444.66 436.565V679.855H1544.83V420.537ZM2048.35 267.693H1948.17V473.774C1948.17 563.076 1906.38 603.72 1850.85 603.72C1801.05 603.72 1770.71 573.953 1770.71 510.984V267.693H1670.53V525.295C1670.53 626.045 1732.93 688.442 1822.23 688.442C1885.77 688.442 1932.71 658.675 1951.03 616.314V679.855H2048.35V267.693ZM2250.62 429.696C2260.92 370.162 2294.12 336.387 2338.78 336.387C2381.71 336.387 2413.77 367.299 2423.5 429.696H2250.62ZM2525.97 473.774C2525.97 340.394 2449.83 259.107 2337.06 259.107C2224.29 259.107 2142.43 344.974 2142.43 473.774C2142.43 603.72 2233.45 688.442 2355.95 688.442C2412.62 688.442 2460.71 671.269 2502.5 634.632L2444.11 576.243C2424.64 596.278 2393.73 608.3 2361.67 608.3C2302.14 608.3 2258.06 568.228 2248.9 501.252H2525.97V473.774ZM2714.83 107.408H2614.65V679.855H2714.83V107.408ZM3711.23 468.05C3711.23 545.33 3667.15 592.271 3612.77 592.271C3557.24 592.271 3513.74 545.33 3513.74 468.05C3513.74 392.487 3558.39 343.256 3612.77 343.256C3667.15 343.256 3711.23 392.487 3711.23 468.05ZM3811.98 267.693H3714.67V328.373C3696.92 291.736 3646.55 259.107 3591.02 259.107C3495.42 259.107 3409.55 342.112 3409.55 468.05C3409.55 593.988 3495.42 676.993 3591.02 676.993C3642.54 676.993 3691.77 648.371 3711.23 611.162V642.646C3711.23 707.333 3659.71 751.411 3591.02 751.411C3541.79 751.411 3508.59 733.093 3489.7 714.775L3432.45 772.019C3463.36 802.359 3516.03 831.554 3595.6 831.554C3727.26 831.554 3811.98 747.404 3811.98 642.646V267.693ZM4315.44 267.693H4215.26V473.774C4215.26 563.076 4173.47 603.72 4117.95 603.72C4068.14 603.72 4037.8 573.953 4037.8 510.984V267.693H3937.62V525.295C3937.62 626.045 4000.02 688.442 4089.32 688.442C4152.86 688.442 4199.81 658.675 4218.12 616.314V679.855H4315.44V267.693ZM4706.05 473.774C4706.05 556.779 4664.26 603.72 4609.88 603.72C4555.49 603.72 4513.7 556.779 4513.7 473.774C4513.7 390.77 4555.49 343.256 4609.88 343.256C4665.4 343.256 4706.05 390.77 4706.05 473.774ZM4810.23 473.774C4810.23 342.112 4724.36 259.107 4609.88 259.107C4495.39 259.107 4409.52 342.112 4409.52 473.774C4409.52 605.437 4495.39 688.442 4609.88 688.442C4724.36 688.442 4810.23 605.437 4810.23 473.774Z" fill="black"/>
<path d="M3065.21 481.898L3134.42 558.344H2996.01L3065.21 481.898Z" fill="black"/>
<path d="M3062.34 449.426L2993.14 372.98H3131.55L3062.34 449.426Z" fill="black"/>
<path fill-rule="evenodd" clip-rule="evenodd" d="M3164.22 332.964H2942.57V376.231H3120.95L2942.69 554.489H2942.57V554.614V590.528V597.754H3182.26V554.489H3003.88L3182.14 376.231H3182.26V376.105L3182.26 376.105V339.454L3182.26 339.454V332.964H3175.77L3175.77 332.961H3164.22L3164.22 332.964Z" fill="#558BAA"/>
<path fill-rule="evenodd" clip-rule="evenodd" d="M3120.88 554.489L2942.61 376.215H3003.8L3182.07 554.489H3120.88Z" fill="black"/>
</svg>
